<?xml version="1.0" encoding="utf-8"?>
<!-- Generator: Adobe Illustrator 16.0.0, SVG Export Plug-In . SVG Version: 6.00 Build 0)  -->
<!DOCTYPE svg PUBLIC "-//W3C//DTD SVG 1.1//EN" "http://www.w3.org/Graphics/SVG/1.1/DTD/svg11.dtd">
<svg version="1.1" xmlns="http://www.w3.org/2000/svg" xmlns:xlink="http://www.w3.org/1999/xlink" x="0px" y="0px"
	 width="358.042px" height="378.326px" viewBox="0 0 358.042 378.326" enable-background="new 0 0 358.042 378.326"
	 xml:space="preserve">
<g id="Layer_1">
	<circle fill="#F78D39" cx="163.162" cy="186.832" r="78.887"/>
	<g opacity="0.2">
		<circle fill="#010101" cx="111.326" cy="167.399" r="3.081"/>
		<circle fill="#010101" cx="124.059" cy="183.459" r="3.082"/>
		<circle fill="#010101" cx="111.326" cy="202.104" r="3.082"/>
		<circle fill="#010101" cx="142.464" cy="167.399" r="3.081"/>
		<circle fill="#010101" cx="130.221" cy="151.833" r="3.082"/>
	</g>
	<circle opacity="0.3" fill="#FFFFFF" enable-background="new    " cx="169.186" cy="129.297" r="8.354"/>
	<path fill="#0F8040" d="M163.162,186.482c17.334,0,32.066,12.438,37.434,17.598c1.254,1.206,1.254,3.2,0,4.406
		c-5.367,5.16-20.1,17.598-37.434,17.598s-32.066-12.438-37.434-17.598c-1.254-1.206-1.254-3.201,0-4.406
		C131.096,198.92,145.828,186.482,163.162,186.482z"/>
	<path opacity="0.15" fill="#010101" enable-background="new    " d="M171.588,209.365h-17.014c-1.703,0-3.082-1.38-3.082-3.082
		c0-1.701,1.379-3.081,3.082-3.081h17.014c1.701,0,3.082,1.38,3.082,3.081C174.67,207.985,173.289,209.365,171.588,209.365z"/>
	<path fill="#1E9447" d="M235.137,167.871c-5.811,20.052-25.137,32.925-32.904,37.403c-1.816,1.047-4.123,0.378-5.098-1.478
		c-4.17-7.938-13.619-29.148-7.809-49.2s25.135-32.925,32.904-37.403c1.814-1.047,4.121-0.378,5.096,1.477
		C231.498,126.608,240.945,147.819,235.137,167.871z"/>
	<path opacity="0.15" fill="#010101" enable-background="new    " d="M209.381,174.157c-0.283,0-0.572-0.04-0.859-0.122
		c-1.633-0.475-2.574-2.184-2.102-3.817l5.703-19.683c0.475-1.635,2.184-2.575,3.818-2.102s2.576,2.183,2.102,3.817l-5.703,19.682
		C211.949,173.281,210.719,174.157,209.381,174.157z"/>
	<path fill="#010101" d="M147.8,239.667"/>
	<g>
		<defs>
			<path id="SVGID_1_" d="M163.08,186.482c17.334,0,32.066,12.438,37.434,17.598c1.254,1.206,1.254,3.2,0,4.406
				c-5.367,5.16-20.1,17.598-37.434,17.598c-17.332,0-32.066-12.438-37.432-17.598c-1.255-1.206-1.255-3.201,0-4.406
				C131.014,198.92,145.746,186.482,163.08,186.482z"/>
		</defs>
		<clipPath id="SVGID_2_">
			<use xlink:href="#SVGID_1_"  overflow="visible"/>
		</clipPath>
		<path opacity="0.1" clip-path="url(#SVGID_2_)" fill="#231F20" d="M194.332,177.542c11.063,7.532,15.061,21.87,16.244,27.495
			c0.277,1.314-0.59,2.587-1.914,2.812c-5.668,0.961-20.475,2.498-31.535-5.033c-11.063-7.53-15.061-21.87-16.244-27.495
			c-0.275-1.314,0.59-2.587,1.914-2.812C168.465,171.547,183.27,170.012,194.332,177.542z"/>
	</g>
	<g>
		<path fill="#10A84B" d="M198.574,173.904c11.061,7.532,15.059,21.869,16.242,27.495c0.277,1.314-0.59,2.587-1.914,2.812
			c-5.666,0.961-20.473,2.498-31.535-5.033c-11.063-7.53-15.061-21.87-16.244-27.494c-0.275-1.314,0.592-2.588,1.916-2.813
			C172.705,167.909,187.51,166.373,198.574,173.904z"/>
	</g>
	<path opacity="0.15" fill="#010101" enable-background="new    " d="M194.061,192.203l-10.857-7.392
		c-1.088-0.739-1.367-2.22-0.629-3.305c0.74-1.087,2.219-1.368,3.305-0.628l10.859,7.392c1.086,0.739,1.367,2.22,0.629,3.306
		C196.627,192.662,195.146,192.943,194.061,192.203z"/>
	<path opacity="0.1" fill="#010101" enable-background="new    " d="M236.813,158.532c0.258-3.29,0.189-6.549-0.109-9.718
		c-2.348-0.887-5.135-0.409-7.061,1.518L131,248.975c-23.961-13.539-40.141-39.241-40.141-68.726
		c0-20.108,7.527-38.455,19.914-52.388c-16.254,14.449-26.498,35.514-26.498,58.973c0,43.566,35.318,78.885,78.885,78.885
		c43.568,0,78.887-35.318,78.887-78.885C242.047,176.858,240.189,167.318,236.813,158.532z"/>
	<path fill="#F78D39" d="M147.578,247.188c-2.859,2.86-2.541,7.619,0.721,10.012c30.861,22.639,74.463,20.012,102.363-7.891
		c27.902-27.9,30.529-71.502,7.891-102.364c-2.393-3.261-7.15-3.581-10.012-0.721L147.578,247.188z"/>
	<g opacity="0.3">
		<path fill="#FFFFFF" d="M152.292,245.305c10.462,8.625,22.923,13.598,35.69,14.912c1.076,0.11,2.01-0.738,2.01-1.818v-50.234
			c0-1.252-1.514-1.879-2.398-0.993l-35.432,35.432C151.4,243.364,151.461,244.619,152.292,245.305z"/>
		<path fill="#FFFFFF" d="M201.443,260.248c12.811-1.253,25.328-6.184,35.844-14.791c0.836-0.685,0.898-1.942,0.135-2.707
			l-35.58-35.579c-0.887-0.886-2.4-0.259-2.4,0.993v50.265C199.443,259.507,200.371,260.353,201.443,260.248z"/>
		<path fill="#FFFFFF" d="M246.809,235.935c8.609-10.515,13.539-23.033,14.793-35.844c0.104-1.072-0.742-2.001-1.818-2.001h-50.266
			c-1.252,0-1.879,1.514-0.994,2.399l35.58,35.58C244.867,236.833,246.125,236.77,246.809,235.935z"/>
		<path fill="#FFFFFF" d="M209.518,188.641h50.234c1.08,0,1.928-0.935,1.816-2.01c-1.313-12.77-6.285-25.23-14.91-35.692
			c-0.686-0.831-1.941-0.892-2.703-0.13l-35.432,35.433C207.639,187.127,208.266,188.641,209.518,188.641z"/>
	</g>
</g>
<g id="Layer_2">
	<g>
		<path fill="#FBB040" d="M66.362,0.176v35.742l7.074,6.621l-7.074,6.563v35.039h-20.41V50.977l-18.406,0.059v33.105H7.074V49.16
			L0,42.539l7.074-6.68V0.176h20.472v32.578l18.406-0.059V0.176H66.362z"/>
		<path fill="#FBB040" d="M149.439,49.277v17.168c0,11.719-6.407,17.618-19.22,17.695H111.25
			c-12.814-0.078-19.22-5.977-19.22-17.695V49.219l-6.761-6.328l6.761-6.328V0.176h20.785v60.879
			c-0.084,2.695,1.377,4.043,4.382,4.043h7.137c3.005,0,4.466-1.348,4.383-4.043V0.176h20.722v36.855l6.574,6.094L149.439,49.277z"
			/>
		<path fill="#FBB040" d="M195.454,0.176v36.035l6.762,6.328l-6.762,6.27v35.332h-20.408V48.75l-6.637-6.211l6.637-6.27V0.176
			H195.454z"/>
		<path fill="#FBB040" d="M282.728,0l-0.125,17.695l-40.945,47.578h40.693l0.063,18.867h-67.801V66.152l40.756-47.285h-40.443V0
			H282.728z"/>
		<path fill="#FBB040" d="M358.042,0.176v18.75h-35.938v13.77h25.293v18.75h-25.293v13.945h35.938v18.75h-56.408V48.926
			l-6.824-6.387l6.824-6.445V0.176H358.042z"/>
	</g>
	<g>
		<path fill="#FBB040" d="M56.765,294.361c11.523,0.078,17.48,5.625,17.871,16.641v12.539H55.3v-6.855
			c-0.157-2.188-1.523-3.281-4.102-3.281h-6.621c-2.813,0-4.18,1.328-4.102,3.984v12.715l6.621,6.621l-6.621,6.621v11.953
			c-0.079,2.695,1.289,4.043,4.102,4.043h6.621c2.813,0,4.179-1.348,4.102-4.043v-7.148h19.336v12.539
			c0,11.68-5.958,17.559-17.871,17.637H39.011c-11.953-0.078-17.93-5.957-17.93-17.637v-17.344l-6.621-6.621l6.621-6.621v-18.105
			c0-11.68,5.977-17.559,17.93-17.637H56.765z"/>
		<path fill="#FBB040" d="M146.765,294.361h1.816v35.742l6.563,6.621l-6.563,6.621v34.98h-19.16v-33.164l-17.227,0.059v33.105
			H93.093v-35.273l-6.328-6.328l6.328-6.328v-36.035H94.5H146.765z M112.195,326.939l17.227-0.059v-13.594h-17.227V326.939z"/>
		<path fill="#FBB040" d="M208.874,294.361c11.953,0.078,17.93,5.957,17.93,17.637v21.387c0,11.68-5.957,17.559-17.871,17.637
			h-16.406v27.305H173.25v-34.922l-6.27-6.27l6.27-6.211v-36.563H208.874z M207.468,317.389c0.078-2.656-1.289-3.984-4.102-3.984
			h-10.723v20.859h10.723c2.813,0,4.18-2.09,4.102-6.27V317.389z"/>
		<path fill="#FBB040" d="M299.636,378.326h-21.27l-14.473-27.656v27.539h-19.043V350.67h-0.117v-7.441l-6.328-6.328l6.328-6.27
			v-36.27h35.449c11.836,0.078,17.754,5.918,17.754,17.52v21.27c0,9.766-4.082,15.332-12.246,16.699L299.636,378.326z
			 M278.718,317.271c0.078-2.656-1.27-3.984-4.043-3.984h-10.664v20.742h10.664c2.773,0,4.121-2.07,4.043-6.211V317.271z"/>
		<path fill="#FBB040" d="M337.253,294.361v36.035l6.328,6.328l-6.328,6.27v35.332h-19.102v-35.391l-6.211-6.211l6.211-6.27v-36.094
			H337.253z"/>
	</g>
</g>
</svg>
