<?xml version="1.0" encoding="utf-8"?>
<!-- Generator: Adobe Illustrator 26.0.2, SVG Export Plug-In . SVG Version: 6.00 Build 0)  -->
<svg version="1.1" id="Layer_1" xmlns="http://www.w3.org/2000/svg" xmlns:xlink="http://www.w3.org/1999/xlink" x="0px" y="0px"
	 viewBox="0 0 208 208" style="enable-background:new 0 0 208 208;" xml:space="preserve">
<style type="text/css">
	.st0{fill:#F78D39;}
	.st1{opacity:0.2;}
	.st2{fill:#010101;}
	.st3{opacity:0.3;fill:#FFFFFF;enable-background:new    ;}
	.st4{fill:#0F8040;}
	.st5{opacity:0.15;fill:#010101;enable-background:new    ;}
	.st6{fill:#1E9447;}
	
		.st7{opacity:0.1;clip-path:url(#SVGID_00000176749337438663144660000003160781409203886721_);fill:#231F20;enable-background:new    ;}
	.st8{fill:#10A84B;}
	.st9{opacity:0.1;fill:#010101;enable-background:new    ;}
	.st10{opacity:0.3;}
	.st11{fill:#FFFFFF;}
</style>
<g id="Layer_1_00000047056756950442507530000013463555740982034603_">
	<circle class="st0" cx="88.1" cy="100.6" r="78.9"/>
	<g class="st1">
		<circle class="st2" cx="36.3" cy="81.2" r="3.1"/>
		<circle class="st2" cx="49" cy="97.3" r="3.1"/>
		<circle class="st2" cx="36.3" cy="115.9" r="3.1"/>
		<circle class="st2" cx="67.4" cy="81.2" r="3.1"/>
		<circle class="st2" cx="55.2" cy="65.6" r="3.1"/>
	</g>
	<circle class="st3" cx="94.1" cy="43.1" r="8.4"/>
	<path class="st4" d="M88.1,100.3c17.3,0,32.1,12.4,37.4,17.6c1.3,1.2,1.3,3.2,0,4.4c-5.4,5.2-20.1,17.6-37.4,17.6
		s-32.1-12.4-37.4-17.6c-1.3-1.2-1.3-3.2,0-4.4C56.1,112.7,70.8,100.3,88.1,100.3z"/>
	<path class="st5" d="M96.5,123.2h-17c-1.7,0-3.1-1.4-3.1-3.1c0-1.7,1.4-3.1,3.1-3.1h17c1.7,0,3.1,1.4,3.1,3.1
		C99.6,121.8,98.2,123.2,96.5,123.2z"/>
	<path class="st6" d="M160.1,81.7c-5.8,20.1-25.1,32.9-32.9,37.4c-1.8,1-4.1,0.4-5.1-1.5c-4.2-7.9-13.6-29.1-7.8-49.2
		s25.1-32.9,32.9-37.4c1.8-1,4.1-0.4,5.1,1.5C156.5,40.4,165.9,61.6,160.1,81.7z"/>
	<path class="st5" d="M134.3,88c-0.3,0-0.6,0-0.9-0.1c-1.6-0.5-2.6-2.2-2.1-3.8l5.7-19.7c0.5-1.6,2.2-2.6,3.8-2.1s2.6,2.2,2.1,3.8
		l-5.7,19.7C136.9,87.1,135.7,88,134.3,88z"/>
	<path class="st2" d="M72.8,153.5"/>
	<g>
		<g>
			<defs>
				<path id="SVGID_1_" d="M88,100.3c17.3,0,32.1,12.4,37.4,17.6c1.3,1.2,1.3,3.2,0,4.4c-5.4,5.2-20.1,17.6-37.4,17.6
					c-17.3,0-32.1-12.4-37.4-17.6c-1.3-1.2-1.3-3.2,0-4.4C56,112.7,70.7,100.3,88,100.3z"/>
			</defs>
			<clipPath id="SVGID_00000007415885992289839190000010090906281879009460_">
				<use xlink:href="#SVGID_1_"  style="overflow:visible;"/>
			</clipPath>
			
				<path style="opacity:0.1;clip-path:url(#SVGID_00000007415885992289839190000010090906281879009460_);fill:#231F20;enable-background:new    ;" d="
				M119.3,91.3c11.1,7.5,15.1,21.9,16.2,27.5c0.3,1.3-0.6,2.6-1.9,2.8c-5.7,1-20.5,2.5-31.5-5C91,109.1,87,94.7,85.8,89.1
				c-0.3-1.3,0.6-2.6,1.9-2.8C93.4,85.3,108.2,83.8,119.3,91.3z"/>
		</g>
	</g>
	<g>
		<path class="st8" d="M123.5,87.7c11.1,7.5,15.1,21.9,16.2,27.5c0.3,1.3-0.6,2.6-1.9,2.8c-5.7,1-20.5,2.5-31.5-5
			c-11.1-7.5-15.1-21.9-16.2-27.5c-0.3-1.3,0.6-2.6,1.9-2.8C97.7,81.7,112.5,80.2,123.5,87.7z"/>
	</g>
	<path class="st5" d="M119,106l-10.9-7.4c-1.1-0.7-1.4-2.2-0.6-3.3c0.7-1.1,2.2-1.4,3.3-0.6l10.9,7.4c1.1,0.7,1.4,2.2,0.6,3.3
		C121.6,106.5,120.1,106.7,119,106z"/>
	<path class="st9" d="M161.8,72.3c0.3-3.3,0.2-6.5-0.1-9.7c-2.3-0.9-5.1-0.4-7.1,1.5L56,162.8C32,149.2,15.8,123.5,15.8,94
		c0-20.1,7.5-38.5,19.9-52.4c-16.3,14.4-26.5,35.5-26.5,59c0,43.6,35.3,78.9,78.9,78.9c43.6,0,78.9-35.3,78.9-78.9
		C167,90.7,165.1,81.1,161.8,72.3z"/>
	<path class="st0" d="M72.5,161c-2.9,2.9-2.5,7.6,0.7,10c30.9,22.6,74.5,20,102.4-7.9c27.9-27.9,30.5-71.5,7.9-102.4
		c-2.4-3.3-7.1-3.6-10-0.7L72.5,161z"/>
	<g class="st10">
		<path class="st11" d="M77.3,159.1c10.5,8.6,22.9,13.6,35.7,14.9c1.1,0.1,2-0.7,2-1.8V122c0-1.3-1.5-1.9-2.4-1l-35.4,35.4
			C76.4,157.2,76.4,158.4,77.3,159.1z"/>
		<path class="st11" d="M126.4,174c12.8-1.3,25.3-6.2,35.8-14.8c0.8-0.7,0.9-1.9,0.1-2.7L126.8,121c-0.9-0.9-2.4-0.3-2.4,1v50.3
			C124.4,173.3,125.3,174.2,126.4,174z"/>
		<path class="st11" d="M171.8,149.7c8.6-10.5,13.5-23,14.8-35.8c0.1-1.1-0.7-2-1.8-2h-50.3c-1.3,0-1.9,1.5-1,2.4l35.6,35.6
			C169.8,150.6,171.1,150.6,171.8,149.7z"/>
		<path class="st11" d="M134.5,102.4h50.2c1.1,0,1.9-0.9,1.8-2c-1.3-12.8-6.3-25.2-14.9-35.7c-0.7-0.8-1.9-0.9-2.7-0.1L133.5,100
			C132.6,100.9,133.2,102.4,134.5,102.4z"/>
	</g>
</g>
</svg>
